<?xml version="1.0" standalone="no"?>
<!DOCTYPE svg PUBLIC "-//W3C//DTD SVG 20010904//EN"
 "http://www.w3.org/TR/2001/REC-SVG-20010904/DTD/svg10.dtd">
<svg version="1.0" xmlns="http://www.w3.org/2000/svg"
 width="708.000000pt" height="605.000000pt" viewBox="0 0 708.000000 605.000000"
 preserveAspectRatio="xMidYMid meet">
<metadata>
Created by potrace 1.13, written by Peter Selinger 2001-2015
</metadata>
<g transform="translate(0.000000,605.000000) scale(0.100000,-0.100000)"
fill="#000000" stroke="none">
<path d="M4929 4616 c-1152 -1147 -1738 -1761 -2269 -2379 -41 -48 -77 -87
-80 -87 -3 0 -18 47 -33 104 l-28 104 159 199 c238 297 403 529 492 691 13 23
27 42 32 42 4 0 8 -44 8 -97 0 -175 23 -165 134 60 52 104 108 237 141 337 31
91 71 199 88 240 l32 75 7 -75 c6 -53 13 -80 28 -94 19 -19 20 -19 57 0 84 43
132 103 428 537 49 73 113 157 142 186 l53 55 0 103 c0 81 -3 103 -14 103 -23
0 -117 -109 -209 -245 -261 -384 -320 -460 -395 -507 -56 -34 -62 -24 -62 107
0 63 -4 115 -9 115 -15 0 -88 -171 -151 -355 -61 -178 -220 -525 -240 -525 -6
0 -10 53 -10 136 0 75 -4 133 -9 130 -5 -3 -32 -47 -61 -98 -67 -118 -190
-302 -296 -443 -125 -166 -377 -478 -390 -482 -7 -2 -21 27 -33 69 -12 40 -73
231 -136 425 -63 193 -115 358 -115 367 0 9 -6 16 -14 16 -21 0 -30 -279 -24
-809 l5 -453 -110 -122 c-60 -66 -182 -194 -270 -283 l-161 -162 3 -108 c1
-59 4 -109 5 -111 2 -1 84 38 182 86 180 89 291 138 299 131 2 -3 -126 -159
-286 -347 l-289 -342 0 -126 c0 -114 2 -125 18 -122 10 2 18 14 20 32 2 18 36
65 95 135 51 59 235 277 411 484 175 207 326 378 335 381 9 2 42 7 73 11 33 4
71 16 90 29 33 22 33 22 38 118 l5 97 130 148 c565 645 1026 1127 2162 2258
l1044 1041 -3 116 -3 116 -1016 -1012z m-2640 -1788 c57 -172 106 -324 111
-338 7 -23 -5 -41 -97 -150 -58 -69 -109 -126 -114 -128 -5 -2 -9 9 -9 25 -1
15 -5 150 -10 298 -9 262 -4 605 10 605 3 0 52 -141 109 -312z m204 -654 l28
-96 -72 -84 c-57 -67 -79 -86 -110 -94 -21 -5 -57 -15 -80 -21 -22 -5 -47 -13
-55 -16 -11 -4 -14 6 -14 51 l0 56 93 108 c51 59 108 126 126 150 19 23 40 42
46 42 6 0 24 -43 38 -96z"/>
</g>
</svg>
